<svg width="48" height="42" viewBox="0 0 48 42" fill="none" xmlns="http://www.w3.org/2000/svg">
<path d="M45.0375 1.6001C46.4625 1.6001 47.5375 2.8501 46.9625 5.1751L39.9875 38.0501C39.5 40.3876 38.0875 40.9501 36.1375 39.8626L19.5 27.5751C19.4355 27.5288 19.3829 27.4678 19.3466 27.3972C19.3104 27.3265 19.2915 27.2483 19.2915 27.1688C19.2915 27.0894 19.3104 27.0112 19.3466 26.9405C19.3829 26.8699 19.4355 26.8089 19.5 26.7626L38.7125 9.4126C39.5875 8.6376 38.525 8.2626 37.375 8.9626L13.2625 24.1751C13.1894 24.2228 13.1063 24.2532 13.0197 24.264C12.9331 24.2749 12.8451 24.2658 12.7625 24.2376L2.52499 21.0001C0.24999 20.3376 0.249989 18.7751 3.03749 17.6626L44 1.8626C44.3248 1.70675 44.6776 1.6175 45.0375 1.6001Z" stroke="black" stroke-width="1.25" stroke-linecap="round" stroke-linejoin="round"/>
</svg>
